<?xml version="1.0" standalone="no"?>
<!DOCTYPE svg PUBLIC "-//W3C//DTD SVG 20010904//EN"
 "http://www.w3.org/TR/2001/REC-SVG-20010904/DTD/svg10.dtd">
<svg version="1.0" xmlns="http://www.w3.org/2000/svg"
 width="500.000000pt" height="500.000000pt" viewBox="0 0 500.000000 500.000000"
 preserveAspectRatio="xMidYMid meet">

<g transform="translate(0.000000,500.000000) scale(0.100000,-0.100000)"
fill="#000000" stroke="none">
<path d="M3580 2408 c0 -31 -3 -39 -10 -28 -7 12 -12 8 -23 -19 l-15 -34 -7
51 c-7 52 -7 52 -43 52 -37 0 -37 -1 -16 -18 20 -15 21 -23 14 -77 -10 -73
-25 -114 -45 -120 -8 -3 -23 -8 -32 -12 -10 -3 -22 -5 -27 -4 -5 1 -12 -2 -15
-6 -3 -5 -17 -14 -31 -20 l-25 -12 25 -1 c22 0 23 -2 7 -11 -9 -6 -27 -7 -38
-4 -14 5 -19 3 -15 -4 4 -7 1 -9 -8 -5 -9 3 -21 -5 -32 -21 -14 -21 -22 -25
-44 -20 -17 4 -33 1 -42 -8 -8 -8 -24 -18 -36 -21 -12 -4 -22 -12 -22 -17 0
-5 -9 -9 -19 -9 -11 0 -23 -4 -26 -10 -3 -5 -14 -10 -24 -10 -10 0 -26 -9 -36
-20 -10 -11 -29 -20 -41 -20 -14 0 -30 -10 -40 -25 -9 -13 -26 -27 -37 -31
-12 -3 -33 -13 -47 -22 -14 -9 -34 -18 -45 -19 -11 -2 -21 -8 -23 -13 -2 -6
-12 -10 -23 -10 -10 0 -19 -6 -19 -14 0 -9 -19 -18 -50 -25 -70 -15 -110 -14
-187 6 -63 15 -67 15 -79 -2 -8 -10 -14 -13 -14 -7 0 7 -5 12 -11 12 -6 0 -9
-12 -7 -26 2 -21 9 -28 31 -30 15 -1 27 2 27 8 0 6 3 8 6 5 4 -4 1 -13 -5 -21
-10 -12 -8 -16 8 -21 12 -3 26 -3 32 1 8 4 9 3 5 -5 -5 -7 6 -17 29 -27 165
-69 405 -73 583 -10 43 15 170 86 194 109 8 6 24 21 37 32 l24 20 -11 -20 c-6
-11 -30 -40 -54 -65 -35 -36 -63 -53 -138 -81 -163 -62 -222 -72 -383 -66
-136 4 -220 21 -289 58 -12 6 -24 5 -38 -3 -27 -17 -25 -27 3 -21 12 3 19 3
15 -1 -3 -4 -21 -9 -40 -10 -57 -5 -59 -6 -53 -16 5 -9 -15 -15 -37 -11 -4 0
-5 -6 -2 -13 6 -17 -45 -13 -135 10 -30 8 -56 12 -59 9 -6 -5 40 -64 51 -64 5
-1 20 -10 34 -21 l26 -20 -27 0 c-24 0 -26 -3 -21 -36 4 -33 3 -35 -13 -23
-16 12 -16 12 -1 -5 25 -27 122 -48 281 -62 124 -11 320 22 460 77 247 96 465
301 578 544 60 127 69 156 95 315 17 103 18 110 5 110 -5 0 -10 -19 -10 -42z"/>
<path d="M3405 2390 c-3 -5 -1 -10 4 -10 6 0 11 5 11 10 0 6 -2 10 -4 10 -3 0
-8 -4 -11 -10z"/>
<path d="M3391 2361 c-1 -7 -7 -11 -15 -8 -10 4 -13 1 -9 -9 3 -7 1 -14 -5
-14 -5 0 -12 -11 -15 -25 -3 -16 0 -24 7 -22 16 5 48 65 43 79 -4 10 -6 10 -6
-1z"/>
<path d="M2750 2160 c-9 -6 -10 -10 -3 -10 6 0 15 5 18 10 8 12 4 12 -15 0z"/>
<path d="M2915 2150 c3 -5 10 -10 16 -10 5 0 9 5 9 10 0 6 -7 10 -16 10 -8 0
-12 -4 -9 -10z"/>
<path d="M2765 2140 c-3 -5 -1 -10 4 -10 6 0 11 5 11 10 0 6 -2 10 -4 10 -3 0
-8 -4 -11 -10z"/>
<path d="M2798 2123 c6 -2 18 -2 25 0 6 3 1 5 -13 5 -14 0 -19 -2 -12 -5z"/>
<path d="M2840 2110 c-8 -5 -12 -11 -9 -14 2 -3 11 -1 19 4 8 5 12 11 9 14 -2
3 -11 1 -19 -4z"/>
<path d="M2330 1821 c0 -6 5 -13 10 -16 6 -3 10 1 10 9 0 9 -4 16 -10 16 -5 0
-10 -4 -10 -9z"/>
<path d="M2357 1729 c7 -7 15 -10 18 -7 3 3 -2 9 -12 12 -14 6 -15 5 -6 -5z"/>
<path d="M2403 1704 c0 -16 13 -19 21 -5 3 5 0 11 -7 14 -8 3 -14 -1 -14 -9z"/>
</g>
</svg>
