<?xml version="1.0" standalone="no"?>
<!DOCTYPE svg PUBLIC "-//W3C//DTD SVG 20010904//EN"
 "http://www.w3.org/TR/2001/REC-SVG-20010904/DTD/svg10.dtd">
<svg version="1.0" xmlns="http://www.w3.org/2000/svg"
 width="500.000000pt" height="500.000000pt" viewBox="0 0 500.000000 500.000000"
 preserveAspectRatio="xMidYMid meet">
<metadata>
Created by potrace 1.16, written by Peter Selinger 2001-2019
</metadata>
<g transform="translate(0.000000,500.000000) scale(0.100000,-0.100000)"
fill="#000000" stroke="none">
<path d="M3580 2408 c0 -31 -3 -39 -10 -28 -7 12 -12 8 -23 -19 l-15 -34 -7
51 c-7 52 -7 52 -43 52 -37 0 -37 -1 -16 -18 20 -15 21 -23 14 -77 -10 -73
-25 -114 -45 -120 -8 -3 -23 -8 -32 -12 -10 -3 -22 -5 -27 -4 -5 1 -12 -2 -15
-6 -3 -5 -17 -14 -31 -20 l-25 -12 25 -1 c22 0 23 -2 7 -11 -9 -6 -27 -7 -38
-4 -14 5 -19 3 -15 -4 4 -7 1 -9 -8 -5 -9 3 -21 -5 -32 -21 -14 -21 -22 -25
-44 -20 -17 4 -33 1 -42 -8 -8 -8 -24 -18 -36 -21 -12 -4 -22 -12 -22 -17 0
-5 -9 -9 -19 -9 -11 0 -23 -4 -26 -10 -3 -5 -14 -10 -24 -10 -10 0 -26 -9 -36
-20 -10 -11 -29 -20 -41 -20 -14 0 -30 -10 -40 -25 -9 -13 -26 -27 -37 -31
-12 -3 -33 -13 -47 -22 -14 -9 -34 -18 -45 -19 -11 -2 -21 -8 -23 -13 -2 -6
-12 -10 -23 -10 -10 0 -19 -6 -19 -14 0 -9 -19 -18 -50 -25 -70 -15 -110 -14
-187 6 -63 15 -67 15 -79 -2 -8 -10 -14 -13 -14 -7 0 7 -4 12 -10 12 -5 0 -10
-9 -10 -20 0 -11 -4 -20 -10 -20 -5 0 -10 9 -10 20 0 11 -4 20 -10 20 -14 0
-13 -13 3 -34 15 -20 87 -31 87 -14 0 6 3 8 6 5 4 -4 1 -13 -6 -22 -10 -13 -3
-19 51 -45 100 -47 226 -72 347 -68 101 3 131 -4 71 -16 -118 -23 -327 11
-463 75 -47 23 -52 23 -37 6 6 -8 7 -17 3 -22 -4 -4 4 -4 18 -1 23 6 23 6 8
-7 -24 -19 -22 -26 5 -20 12 3 19 3 15 -1 -3 -4 -21 -9 -40 -10 -57 -5 -59 -6
-53 -16 5 -9 -15 -15 -37 -11 -4 0 -5 -6 -2 -13 6 -17 -45 -13 -135 10 -30 8
-56 12 -59 9 -6 -5 40 -64 51 -64 5 -1 20 -10 34 -21 l26 -20 -27 0 c-24 0
-26 -3 -21 -36 3 -29 2 -34 -9 -25 -9 8 -13 7 -13 -4 0 -9 12 -18 26 -21 14
-3 40 -10 56 -14 83 -23 178 -32 295 -27 119 5 159 11 260 37 25 7 50 13 55
14 6 2 23 8 38 14 16 7 31 12 35 12 14 0 129 64 197 109 153 102 280 250 366
426 27 56 49 108 49 116 0 8 4 19 9 24 5 6 12 24 15 40 3 17 12 64 21 105 17
86 20 150 5 150 -5 0 -10 -19 -10 -42z"/>
</g>
</svg>
